<?xml version="1.0" standalone="no"?>
<!DOCTYPE svg PUBLIC "-//W3C//DTD SVG 20010904//EN"
 "http://www.w3.org/TR/2001/REC-SVG-20010904/DTD/svg10.dtd">
<svg version="1.0" xmlns="http://www.w3.org/2000/svg"
 width="300.000000pt" height="313.000000pt" viewBox="0 0 300.000000 313.000000"
 preserveAspectRatio="xMidYMid meet">
<metadata>
Created by potrace 1.10, written by Peter Selinger 2001-2011
</metadata>
<g transform="translate(0.000000,313.000000) scale(0.100000,-0.100000)"
fill="#000000" stroke="none">
<path d="M1485 3074 c-206 -28 -341 -91 -479 -223 -81 -77 -151 -181 -195
-284 -48 -116 -61 -218 -61 -472 l0 -222 -59 -6 c-107 -9 -190 -70 -224 -164
-16 -45 -17 -101 -15 -763 l3 -715 29 -53 c17 -30 47 -67 67 -83 79 -62 23
-59 1016 -59 891 0 909 1 953 21 60 27 107 74 136 134 l24 50 0 720 0 720 -24
51 c-40 86 -134 144 -232 144 l-42 0 -4 273 c-4 249 -6 278 -27 342 -90 277
-315 498 -575 565 -71 18 -235 32 -291 24z m295 -52 c245 -75 423 -238 518
-476 44 -108 51 -168 56 -438 4 -225 5 -233 26 -250 13 -11 39 -18 61 -18 78
0 152 -48 192 -125 20 -39 20 -51 20 -745 0 -508 -4 -717 -12 -748 -14 -52
-69 -115 -125 -145 l-41 -22 -905 0 -905 0 -45 22 c-57 27 -93 65 -120 126
-21 48 -21 55 -21 760 1 690 2 712 21 752 35 72 114 125 186 125 27 0 51 7 68
21 l26 20 0 232 c0 312 7 354 92 522 93 182 264 322 473 385 83 26 93 27 240
24 97 -1 147 -7 195 -22z"/>
<path d="M1414 2781 c-64 -18 -172 -76 -215 -114 -44 -40 -109 -127 -133 -181
-38 -84 -46 -144 -47 -382 -1 -197 1 -229 15 -243 15 -14 71 -16 525 -18 487
-2 510 -1 533 17 l24 19 -1 238 c-2 228 -3 241 -27 311 -34 94 -76 159 -147
224 -108 100 -234 148 -386 147 -44 0 -107 -8 -141 -18z m254 -17 c153 -31
297 -136 361 -262 52 -103 61 -161 61 -409 l0 -223 -526 0 -526 0 4 243 c4
214 7 250 26 308 57 174 203 303 388 343 91 19 120 19 212 0z"/>
<path d="M1522 1649 c-127 -24 -217 -118 -238 -247 -19 -118 76 -257 202 -297
217 -68 423 148 343 360 -48 129 -180 208 -307 184z m129 -43 c159 -57 213
-266 102 -395 -145 -170 -433 -66 -433 156 0 80 17 122 73 177 29 29 68 57 87
63 48 15 128 15 171 -1z"/>
<path d="M1313 860 c-25 -10 -43 -39 -43 -70 0 -19 -4 -21 -30 -15 -26 6 -36
1 -66 -29 -20 -20 -39 -36 -43 -36 -4 0 -15 14 -24 30 -19 31 -20 32 -77 34
-25 1 -35 6 -35 17 0 8 -8 27 -18 42 -13 20 -26 27 -51 27 -39 0 -83 -31 -88
-63 -2 -18 -9 -22 -39 -22 -43 0 -67 -18 -86 -62 -18 -44 -17 -49 17 -79 l29
-27 -25 -32 c-23 -31 -24 -34 -9 -68 17 -41 40 -57 84 -57 26 0 31 -4 31 -23
0 -43 27 -67 74 -67 48 0 86 30 86 68 0 17 7 21 37 24 30 2 42 10 60 37 28 42
29 61 3 89 -25 27 -25 30 6 58 24 23 26 24 49 7 34 -26 38 -43 15 -68 -27 -29
-25 -57 6 -94 19 -24 34 -31 60 -31 29 0 34 -3 34 -23 0 -37 40 -67 87 -67 44
0 64 16 80 65 7 21 15 29 28 27 29 -6 65 20 81 56 15 36 13 44 -20 80 l-21 24
29 23 29 23 29 -21 c33 -25 34 -30 8 -68 l-21 -28 20 -39 c22 -43 37 -52 82
-52 24 0 29 -4 29 -23 0 -42 27 -67 74 -67 51 0 74 15 84 55 7 24 14 31 40 33
65 6 106 97 62 137 -26 24 -25 27 9 52 l28 22 27 -28 27 -28 -22 -27 c-24 -30
-21 -58 12 -99 15 -20 30 -27 55 -27 27 0 34 -4 34 -19 0 -10 9 -30 21 -45 16
-21 29 -26 63 -26 49 0 79 24 79 65 0 23 3 25 34 23 29 -2 40 3 59 27 36 44
40 72 15 99 -27 29 -26 34 5 67 31 33 28 61 -13 109 -22 27 -31 31 -59 26 -30
-6 -33 -4 -39 23 -7 31 -31 58 -55 61 -36 5 -81 -1 -75 -10 3 -5 -1 -10 -9
-10 -9 0 -18 -13 -22 -35 -6 -34 -8 -35 -38 -29 -28 5 -37 1 -65 -31 l-32 -37
-36 37 c-28 28 -41 35 -66 33 -26 -3 -31 1 -38 25 -12 46 -28 57 -79 57 -51 0
-67 -11 -79 -57 -6 -24 -12 -28 -43 -28 -38 0 -73 -24 -84 -57 -5 -17 -10 -15
-41 22 -33 38 -39 41 -70 35 -31 -6 -34 -4 -39 24 -4 16 -14 37 -23 45 -21 19
-70 27 -98 16z m87 -90 c0 -33 3 -60 8 -60 4 0 25 11 48 24 l41 23 25 -42 26
-42 -54 -23 c-30 -12 -54 -25 -54 -29 0 -4 20 -22 45 -40 25 -18 45 -34 45
-36 0 -2 -9 -20 -21 -39 l-21 -36 -44 31 -44 30 0 -71 0 -70 -47 0 -48 0 3 71
4 71 -47 -32 c-25 -18 -47 -30 -48 -28 -1 1 -13 18 -25 36 -13 19 -22 35 -20
36 1 1 24 18 51 36 26 19 44 36 40 40 -5 3 -28 15 -53 25 -25 10 -46 20 -48
21 -2 1 33 67 44 83 2 2 24 -8 50 -23 25 -14 49 -26 51 -26 3 0 2 29 -2 65
l-7 65 51 0 51 0 0 -60z m438 0 c-2 -33 -1 -60 4 -60 4 0 22 9 40 20 44 27 49
26 77 -17 23 -35 23 -37 5 -50 -10 -7 -36 -19 -56 -25 -21 -6 -38 -14 -38 -19
0 -4 23 -21 50 -39 l50 -32 -22 -37 c-12 -20 -23 -38 -24 -39 -1 -2 -23 10
-47 27 l-44 30 5 -69 5 -70 -51 0 -51 0 -3 65 -3 65 -37 -25 c-20 -14 -39 -25
-41 -25 -5 0 -47 67 -47 74 0 1 23 18 52 36 l51 34 -56 24 c-31 14 -57 28 -57
33 0 11 41 79 48 79 3 0 25 -11 49 -25 l43 -26 0 66 0 65 51 0 51 0 -4 -60z
m432 0 c0 -33 2 -60 5 -60 3 0 23 9 45 20 22 11 43 20 47 20 4 0 18 -18 31
-40 l23 -40 -23 -9 c-13 -5 -40 -17 -61 -26 l-39 -16 46 -30 c25 -17 48 -35
51 -40 5 -7 -17 -62 -31 -77 -1 -2 -23 10 -48 28 l-46 31 0 -71 0 -70 -45 0
-45 0 0 70 0 70 -41 -30 c-23 -16 -45 -27 -49 -25 -5 3 -17 20 -27 38 l-20 33
49 33 c27 19 45 37 41 41 -4 4 -29 15 -55 25 l-47 17 22 44 c11 24 25 44 30
44 5 0 28 -12 53 -26 l44 -26 0 66 0 66 45 0 45 0 0 -60z m-1310 -5 c0 -30 2
-55 5 -55 4 0 18 6 33 14 59 30 68 29 91 -9 11 -20 21 -38 21 -41 0 -5 -28
-17 -87 -39 l-33 -11 50 -38 c28 -21 50 -42 50 -47 0 -8 -16 -38 -36 -68 -2
-1 -18 8 -36 22 -62 46 -61 47 -56 -32 l4 -71 -49 0 -49 0 4 65 c2 36 1 65 -2
65 -3 0 -22 -12 -43 -26 -37 -25 -39 -25 -53 -7 -20 25 -36 54 -32 57 2 1 24
18 51 36 26 19 44 37 40 40 -5 4 -31 15 -60 25 l-52 19 21 35 c33 55 34 55 82
27 l46 -27 0 61 0 60 45 0 45 0 0 -55z"/>
</g>
</svg>
